# xmcd
#
# Track frame offsets:
#	150
#	15296
#	29354
#	52745
#	71498
#	96501
#	111180
#	123520
#	142047
#	159615
#	180366
#	195400
#	214185
#	224968
#	241203
#	253289
#	265260
#	289869
#
# Disc length: 4096 seconds
#
# Revision: 1
# Processed by: cddbd v1.5.1PL0 Copyright (c) Steve Scherf et al.
# Submitted via: audiograbber 1.82.02
#
DISCID=110ffe12
DTITLE=Johnny Cash - Live In New York City
DYEAR=1996
DGENRE=Country
TTITLE0=Folsom Prison Blues
TTITLE1=Get Rhyth
TTITLE2=Sunday Morning Coming Down
TTITLE3=Ghost Riders In The Sky
TTITLE4=O Bury Me Not
TTITLE5=I Never Picked Cotto
TTITLE6=Unchained
TTITLE7=Rowboat
TTITLE8=Rusty Cage
TTITLE9=Southern Accen
TTITLE10=Memories Are Made Of This
TTITLE11=Ring Of Fire
TTITLE12=I Walk The Line
TTITLE13=I've Got Jesus In My Soul
TTITLE14=Big River
TTITLE15=I Still Miss Someone
TTITLE16=Orange Blossom Special
TTITLE17=Unlisted Track With June
EXTD=Recorded with his band in New York City, 1996\nA stereo sounboard recordin
EXTD=g
EXTT0=
EXTT1=
EXTT2=
EXTT3=
EXTT4=
EXTT5=
EXTT6=
EXTT7=
EXTT8=
EXTT9=
EXTT10=
EXTT11=
EXTT12=
EXTT13=
EXTT14=
EXTT15=
EXTT16=
EXTT17=
PLAYORDER=
